<svg xmlns="http://www.w3.org/2000/svg" width="277.64" height="36" viewBox="0 0 277.64 36" preserveAspectRatio="xMidYMid meet"><title>UAMS Health logo</title><path d="M29.8,21.94c0,3.75.1,7.23-2.66,10.25-2.34,2.55-6,3.71-9.42,3.81H14.36c-3.43-.1-7.08-1.2-9.42-3.75-2.75-3-2.65-6.5-2.65-10.24V8.12C2.29,5.77,2.66,2,0,1V.83H9.89V1c-2.61,1-2.3,4.78-2.3,7.13V22c0,6.92,2.92,10.14,8.28,10.14a9.21,9.21,0,0,0,7.59-3.64c1.15-1.56,1.09-2.86,1.09-4.74V8.12c0-2.35.32-6.14-2.28-7.13V.83h9.88L32.2,1c-2.65,1-2.34,4.78-2.34,7.18L29.8,21.94Z" fill="#fff"/><path d="M45.36,5.26l-6.5,17-2.71,7.34c-1.09,2.91-1.45,4.42,1,5.36v.15H27.62v-.15c3-1.51,3.91-4.42,5.05-7.39L41.36,5.83C42.09,4,43.07,1.77,40.57,1V.83H48.8L59.61,27.52c1.2,3,2.14,5.88,5.1,7.39v.15H54.05v-.15c2.55-1.15,2.13-1.72.73-5.36L52,22.21l-6.61-17Z" fill="#fff"/><path d="M94.83,4.11A9.05,9.05,0,0,0,95.62.89V.83h9V1c-1.25.37-1.62,1.87-1.62,3.07l3.43,25.54c.32,2.45.58,3.85,2.65,5.31v.15h-10v-.15c1.82-.57,2.13-2.13,2.13-3.9l-3-25.08L86.56,35.74c-2.6-2-3.33-3.38-4.58-6.29L72.1,6l-3,22.37c-.41,3.18-.78,5.46,1.67,6.56v.15H62.32v-.15c2.18-1.93,2.5-4.48,2.91-7.28l3-21.8C68.41,4.37,69,2.29,66.59,1V.83h9.1V.89a6.21,6.21,0,0,0,.73,2.34L86.2,26.17,94.83,4.11Z" fill="#fff"/><path d="M129.74,7a11.86,11.86,0,0,0-8.17-3.28c-3,0-6.71,1.14-6.71,4.73,0,7.13,17.89,7,17.89,16.65,0,5.56-5.82,10.77-13.94,10.77a27,27,0,0,1-9.31-1.56L108,27.83a18,18,0,0,0,11.4,4.32c3,0,7.44-1.77,7.44-5.41,0-8.11-17.91-6.66-17.91-17.69,0-6.55,6.72-9,13.06-9a25.87,25.87,0,0,1,7.76,1.15V7Z" fill="#fff"/><path d="M45.44,29a4.36,4.36,0,1,0-4.36-4.36A4.36,4.36,0,0,0,45.44,29Z" fill="#fff"/><path d="M146.87,18.37v9.42c0,2.34-.32,6.14,2.29,7.12v.16h-9.89v-.16c2.6-1,2.29-4.78,2.29-7.12V8.12c0-2.34.36-6.14-2.29-7.12V.84h9.89V1c-2.61,1-2.29,4.78-2.29,7.17v6.46h18.78V8.17c0-2.39.36-6.19-2.29-7.17V.84h9.93V1C170.64,2,171,5.78,171,8.12V27.79c0,2.34-.31,6.14,2.34,7.12v.16h-9.93v-.16c2.65-1,2.29-4.78,2.29-7.12V18.37Z" fill="#fff"/><path d="M178.81,22.27c.1,6.35,4.52,10,10.4,10a13.74,13.74,0,0,0,8.53-2.75h.16l-2.6,4.89a18.84,18.84,0,0,1-7.18,1.3c-8.85,0-14.93-5.57-14.93-12.8s5.25-12.49,13-12.49c7.08,0,11.92,5.1,11.71,11.81Zm13.63-3c-.58-3.65-3-5.36-6.71-5.36A6.48,6.48,0,0,0,179,19.26Z" fill="#fff"/><path d="M221.62,35.75c-3.43-.21-6.87-1.25-6.87-5.41V22.12a22.58,22.58,0,0,1-5,1.61c-2.5.57-5.31,1.14-5.31,4.32s2.92,4.26,5.67,4.26a13.46,13.46,0,0,0,3.75-.73l-3.07,3.91a16.57,16.57,0,0,1-2.71.26c-5.25,0-8.89-3.33-8.89-7.65,0-9.68,15.55-5.2,15.55-10.87,0-2.5-3.07-3.33-5-3.33-2.65,0-4.74,1-7.08,2.08l3.49-5.2,3.38-.32c5.62,0,9.88,1.62,9.94,7.91v7.8c0,4.11.1,5.67,4.42,6.14Z" fill="#fff"/><path d="M227.71.84c1.19,0,2.54.05,3.32-.83h.16V29.3c0,2.39-.36,4.31,1.93,5.61v.16h-8.59v-.16c2.24-1.3,1.93-3.22,1.93-5.61V6.61c0-2.39.31-4.31-1.93-5.61V.84Z" fill="#fff"/><path d="M244,25c0,2-.63,7.33,4.94,7.33a5.85,5.85,0,0,0,2.08-.52l-2.76,3.7a6.06,6.06,0,0,1-1.66.26c-8.07,0-7.34-8.33-7.34-10.36V14.57h-3.54V12.7c4.9-.83,6.2-4.47,6.2-9.31H244v7.75h4.89a4.08,4.08,0,0,0,2-.31H251v4.73h-.16c-.83-1.09-2.39-1-3.74-1H244Z" fill="#fff"/><path d="M255.8.84c1.19,0,2.44,0,3.17-.83h.15V13.74c1.57-2.24,5.1-3.28,7.65-3.28,7.18,0,8.9,4.32,8.9,9.37V29.3c0,2.39-.31,4.31,2,5.61v.16H269v-.16c2.29-1.3,1.92-3.22,1.92-5.61V21.39c0-4.22-1.35-7.49-5.82-7.49s-6,2.55-6,7.18V29.3c0,2.39-.31,4.31,2,5.61v.16h-8.69v-.16c2.29-1.3,2-3.22,2-5.61V6.61c0-2.39.31-4.31-2-5.61V.84Z" fill="#fff"/></svg>